<svg id="visual" viewBox="0 0 900 600" width="900" height="600" xmlns="http://www.w3.org/2000/svg" xmlns:xlink="http://www.w3.org/1999/xlink" version="1.1"><rect x="0" y="0" width="900" height="600" fill="#f2ebe3"></rect><path d="M0 485L21.5 474.2C43 463.3 86 441.7 128.8 440.7C171.7 439.7 214.3 459.3 257.2 470.5C300 481.7 343 484.3 385.8 479.8C428.7 475.3 471.3 463.7 514.2 457.5C557 451.3 600 450.7 642.8 454C685.7 457.3 728.3 464.7 771.2 475C814 485.3 857 498.7 878.5 505.3L900 512L900 601L878.5 601C857 601 814 601 771.2 601C728.3 601 685.7 601 642.8 601C600 601 557 601 514.2 601C471.3 601 428.7 601 385.8 601C343 601 300 601 257.2 601C214.3 601 171.7 601 128.8 601C86 601 43 601 21.5 601L0 601Z" fill="#037a69" stroke-linecap="round" stroke-linejoin="miter"></path></svg>